<svg xmlns="http://www.w3.org/2000/svg" xmlns:xlink="http://www.w3.org/1999/xlink" width="500" zoomAndPan="magnify" viewBox="0 0 375 374.999991" height="500" preserveAspectRatio="xMidYMid meet" version="1.0"><path fill="#ffffff" d="M 360.398438 187.972656 C 360.398438 189.535156 360.363281 191.097656 360.296875 192.660156 C 360.226562 194.21875 360.125 195.777344 359.988281 197.332031 C 359.851562 198.886719 359.679688 200.4375 359.476562 201.980469 C 359.269531 203.527344 359.03125 205.066406 358.761719 206.597656 C 358.488281 208.128906 358.183594 209.65625 357.84375 211.171875 C 357.503906 212.6875 357.132812 214.191406 356.730469 215.6875 C 356.324219 217.179688 355.886719 218.664062 355.417969 220.136719 C 354.949219 221.605469 354.445312 223.0625 353.910156 224.507812 C 353.378906 225.949219 352.8125 227.378906 352.21875 228.789062 C 351.621094 230.203125 350.992188 231.597656 350.335938 232.976562 C 349.679688 234.355469 348.992188 235.714844 348.273438 237.054688 C 347.558594 238.394531 346.8125 239.710938 346.039062 241.011719 C 345.261719 242.3125 344.460938 243.589844 343.628906 244.84375 C 342.796875 246.097656 341.941406 247.328125 341.054688 248.535156 C 340.171875 249.746094 339.261719 250.925781 338.324219 252.085938 C 337.386719 253.242188 336.425781 254.375 335.441406 255.476562 C 334.453125 256.582031 333.445312 257.660156 332.410156 258.710938 C 331.378906 259.757812 330.320312 260.777344 329.246094 261.769531 C 328.167969 262.761719 327.066406 263.722656 325.945312 264.652344 C 324.828125 265.582031 323.6875 266.484375 322.527344 267.351562 C 321.367188 268.21875 320.191406 269.054688 318.992188 269.859375 C 317.796875 270.660156 316.585938 271.429688 315.355469 272.167969 C 314.125 272.902344 312.878906 273.605469 311.617188 274.273438 C 310.359375 274.941406 309.082031 275.574219 307.796875 276.171875 C 306.507812 276.769531 305.207031 277.332031 303.894531 277.859375 C 302.582031 278.386719 301.257812 278.875 299.921875 279.328125 C 298.585938 279.78125 297.242188 280.199219 295.890625 280.578125 C 294.539062 280.957031 293.179688 281.300781 291.808594 281.605469 C 290.441406 281.910156 289.070312 282.175781 287.6875 282.40625 C 286.308594 282.636719 284.925781 282.828125 283.539062 282.980469 C 282.152344 283.132812 280.761719 283.246094 279.367188 283.324219 C 277.972656 283.402344 276.582031 283.441406 275.1875 283.441406 C 273.792969 283.441406 272.398438 283.402344 271.003906 283.324219 C 269.613281 283.246094 268.222656 283.132812 266.832031 282.980469 C 265.445312 282.828125 264.0625 282.636719 262.683594 282.40625 C 261.304688 282.175781 259.929688 281.910156 258.5625 281.605469 C 257.195312 281.300781 255.835938 280.957031 254.480469 280.578125 C 253.128906 280.199219 251.785156 279.78125 250.449219 279.328125 C 249.117188 278.875 247.792969 278.386719 246.480469 277.859375 C 245.164062 277.332031 243.863281 276.769531 242.578125 276.171875 C 241.289062 275.574219 240.015625 274.941406 238.753906 274.273438 C 237.492188 273.605469 236.246094 272.902344 235.015625 272.167969 C 233.789062 271.429688 232.574219 270.660156 231.378906 269.859375 C 230.183594 269.054688 229.003906 268.21875 227.84375 267.351562 C 226.683594 266.484375 225.546875 265.582031 224.425781 264.652344 C 223.304688 263.722656 222.207031 262.761719 221.128906 261.769531 C 220.050781 260.777344 218.996094 259.757812 217.960938 258.710938 C 216.929688 257.660156 215.917969 256.582031 214.933594 255.476562 C 213.945312 254.375 212.984375 253.242188 212.046875 252.085938 C 211.113281 250.925781 210.199219 249.746094 209.316406 248.535156 C 208.429688 247.328125 207.574219 246.097656 206.742188 244.84375 C 205.914062 243.589844 205.109375 242.3125 204.335938 241.011719 C 203.558594 239.710938 202.8125 238.394531 202.097656 237.054688 C 201.378906 235.714844 200.691406 234.355469 200.035156 232.976562 C 199.378906 231.597656 198.75 230.203125 198.15625 228.789062 C 197.558594 227.378906 196.992188 225.949219 196.460938 224.507812 C 195.925781 223.0625 195.425781 221.605469 194.953125 220.136719 C 194.484375 218.664062 194.046875 217.179688 193.644531 215.6875 C 193.238281 214.191406 192.867188 212.6875 192.527344 211.171875 C 192.1875 209.65625 191.882812 208.128906 191.609375 206.597656 C 191.339844 205.066406 191.101562 203.527344 190.894531 201.980469 C 190.691406 200.4375 190.519531 198.886719 190.382812 197.332031 C 190.246094 195.777344 190.144531 194.21875 190.078125 192.660156 C 190.007812 191.097656 189.972656 189.535156 189.972656 187.972656 C 189.972656 186.410156 190.007812 184.851562 190.078125 183.289062 C 190.144531 181.730469 190.246094 180.171875 190.382812 178.617188 C 190.519531 177.0625 190.691406 175.511719 190.894531 173.964844 C 191.101562 172.421875 191.339844 170.882812 191.609375 169.351562 C 191.882812 167.816406 192.1875 166.292969 192.527344 164.777344 C 192.867188 163.261719 193.238281 161.757812 193.644531 160.261719 C 194.046875 158.765625 194.484375 157.285156 194.953125 155.8125 C 195.425781 154.339844 195.925781 152.882812 196.460938 151.441406 C 196.992188 149.996094 197.558594 148.570312 198.15625 147.15625 C 198.75 145.746094 199.378906 144.351562 200.035156 142.972656 C 200.691406 141.59375 201.378906 140.234375 202.097656 138.894531 C 202.8125 137.554688 203.558594 136.234375 204.335938 134.9375 C 205.109375 133.636719 205.914062 132.359375 206.742188 131.105469 C 207.574219 129.851562 208.429688 128.621094 209.316406 127.410156 C 210.199219 126.203125 211.113281 125.019531 212.046875 123.863281 C 212.984375 122.707031 213.945312 121.574219 214.933594 120.46875 C 215.917969 119.363281 216.929688 118.289062 217.960938 117.238281 C 218.996094 116.191406 220.050781 115.167969 221.128906 114.179688 C 222.207031 113.1875 223.304688 112.226562 224.425781 111.296875 C 225.546875 110.363281 226.683594 109.464844 227.84375 108.597656 C 229.003906 107.730469 230.183594 106.894531 231.378906 106.089844 C 232.574219 105.289062 233.789062 104.515625 235.015625 103.78125 C 236.246094 103.042969 237.492188 102.34375 238.753906 101.675781 C 240.015625 101.007812 241.289062 100.375 242.578125 99.777344 C 243.863281 99.175781 245.164062 98.617188 246.480469 98.089844 C 247.792969 97.5625 249.117188 97.074219 250.449219 96.621094 C 251.785156 96.164062 253.128906 95.75 254.480469 95.371094 C 255.835938 94.988281 257.195312 94.648438 258.5625 94.34375 C 259.929688 94.039062 261.304688 93.769531 262.683594 93.542969 C 264.0625 93.3125 265.445312 93.121094 266.832031 92.96875 C 268.222656 92.816406 269.613281 92.699219 271.003906 92.625 C 272.398438 92.546875 273.792969 92.507812 275.1875 92.507812 C 276.582031 92.507812 277.972656 92.546875 279.367188 92.625 C 280.761719 92.699219 282.152344 92.816406 283.539062 92.96875 C 284.925781 93.121094 286.308594 93.3125 287.6875 93.542969 C 289.070312 93.769531 290.441406 94.039062 291.808594 94.34375 C 293.179688 94.648438 294.539062 94.988281 295.890625 95.371094 C 297.242188 95.75 298.585938 96.164062 299.921875 96.621094 C 301.257812 97.074219 302.582031 97.5625 303.894531 98.089844 C 305.207031 98.617188 306.507812 99.175781 307.796875 99.777344 C 309.082031 100.375 310.359375 101.007812 311.617188 101.675781 C 312.878906 102.34375 314.125 103.042969 315.355469 103.78125 C 316.585938 104.515625 317.796875 105.289062 318.992188 106.089844 C 320.191406 106.894531 321.367188 107.730469 322.527344 108.597656 C 323.6875 109.464844 324.828125 110.363281 325.945312 111.296875 C 327.066406 112.226562 328.167969 113.1875 329.246094 114.179688 C 330.320312 115.167969 331.378906 116.191406 332.410156 117.238281 C 333.445312 118.289062 334.453125 119.363281 335.441406 120.46875 C 336.425781 121.574219 337.386719 122.707031 338.324219 123.863281 C 339.261719 125.019531 340.171875 126.203125 341.054688 127.410156 C 341.941406 128.621094 342.796875 129.851562 343.628906 131.105469 C 344.460938 132.359375 345.261719 133.636719 346.039062 134.9375 C 346.8125 136.234375 347.558594 137.554688 348.273438 138.894531 C 348.992188 140.234375 349.679688 141.59375 350.335938 142.972656 C 350.992188 144.351562 351.621094 145.746094 352.21875 147.15625 C 352.8125 148.570312 353.378906 149.996094 353.910156 151.441406 C 354.445312 152.882812 354.949219 154.339844 355.417969 155.8125 C 355.886719 157.285156 356.324219 158.765625 356.730469 160.261719 C 357.132812 161.757812 357.503906 163.261719 357.84375 164.777344 C 358.183594 166.292969 358.488281 167.816406 358.761719 169.351562 C 359.03125 170.882812 359.269531 172.421875 359.476562 173.964844 C 359.679688 175.511719 359.851562 177.0625 359.988281 178.617188 C 360.125 180.171875 360.226562 181.730469 360.296875 183.289062 C 360.363281 184.851562 360.398438 186.410156 360.398438 187.972656 Z M 360.398438 187.972656 " fill-opacity="1" fill-rule="nonzero"/><path fill="#0cc0df" d="M 340.5 187.757812 C 340.5 190.40625 340.4375 193.054688 340.304688 195.703125 C 340.175781 198.351562 339.980469 200.992188 339.722656 203.628906 C 339.460938 206.265625 339.136719 208.894531 338.75 211.515625 C 338.363281 214.136719 337.910156 216.75 337.394531 219.347656 C 336.875 221.945312 336.296875 224.53125 335.652344 227.101562 C 335.007812 229.671875 334.304688 232.226562 333.535156 234.761719 C 332.765625 237.296875 331.9375 239.8125 331.042969 242.308594 C 330.152344 244.804688 329.199219 247.273438 328.1875 249.722656 C 327.171875 252.171875 326.101562 254.59375 324.96875 256.988281 C 323.835938 259.382812 322.648438 261.75 321.398438 264.085938 C 320.152344 266.425781 318.847656 268.730469 317.484375 271.003906 C 316.125 273.277344 314.707031 275.515625 313.238281 277.71875 C 311.765625 279.921875 310.242188 282.085938 308.664062 284.214844 C 307.089844 286.34375 305.460938 288.433594 303.78125 290.480469 C 302.101562 292.527344 300.371094 294.535156 298.59375 296.5 C 296.816406 298.460938 294.992188 300.382812 293.117188 302.253906 C 291.246094 304.128906 289.328125 305.957031 287.367188 307.734375 C 285.40625 309.515625 283.402344 311.246094 281.355469 312.925781 C 279.308594 314.605469 277.222656 316.238281 275.097656 317.816406 C 272.96875 319.394531 270.804688 320.917969 268.605469 322.390625 C 266.402344 323.863281 264.167969 325.28125 261.894531 326.644531 C 259.625 328.007812 257.320312 329.3125 254.988281 330.5625 C 252.652344 331.808594 250.289062 333 247.894531 334.132812 C 245.5 335.269531 243.082031 336.339844 240.636719 337.355469 C 238.191406 338.371094 235.71875 339.324219 233.226562 340.214844 C 230.734375 341.109375 228.222656 341.9375 225.6875 342.707031 C 223.15625 343.476562 220.605469 344.183594 218.035156 344.828125 C 215.46875 345.472656 212.882812 346.050781 210.289062 346.570312 C 207.691406 347.085938 205.082031 347.539062 202.464844 347.929688 C 199.847656 348.316406 197.21875 348.640625 194.585938 348.902344 C 191.949219 349.160156 189.308594 349.355469 186.664062 349.484375 C 184.019531 349.617188 181.375 349.679688 178.726562 349.679688 C 176.078125 349.679688 173.433594 349.617188 170.789062 349.484375 C 168.144531 349.355469 165.503906 349.160156 162.871094 348.902344 C 160.234375 348.640625 157.609375 348.316406 154.992188 347.929688 C 152.371094 347.539062 149.765625 347.085938 147.167969 346.570312 C 144.570312 346.050781 141.988281 345.472656 139.417969 344.828125 C 136.851562 344.183594 134.300781 343.476562 131.765625 342.707031 C 129.234375 341.9375 126.71875 341.109375 124.226562 340.214844 C 121.734375 339.324219 119.265625 338.371094 116.820312 337.355469 C 114.375 336.339844 111.953125 335.269531 109.558594 334.132812 C 107.167969 333 104.804688 331.808594 102.46875 330.5625 C 100.132812 329.3125 97.832031 328.007812 95.558594 326.644531 C 93.289062 325.28125 91.050781 323.863281 88.851562 322.390625 C 86.648438 320.917969 84.484375 319.394531 82.359375 317.816406 C 80.234375 316.238281 78.144531 314.605469 76.101562 312.925781 C 74.054688 311.246094 72.050781 309.515625 70.085938 307.734375 C 68.125 305.957031 66.207031 304.128906 64.335938 302.253906 C 62.464844 300.382812 60.640625 298.460938 58.863281 296.5 C 57.082031 294.535156 55.355469 292.527344 53.675781 290.480469 C 51.996094 288.433594 50.367188 286.34375 48.789062 284.214844 C 47.210938 282.085938 45.6875 279.921875 44.21875 277.71875 C 42.746094 275.515625 41.332031 273.277344 39.96875 271.003906 C 38.609375 268.730469 37.304688 266.425781 36.054688 264.085938 C 34.808594 261.75 33.617188 259.382812 32.484375 256.988281 C 31.355469 254.59375 30.28125 252.171875 29.269531 249.722656 C 28.253906 247.273438 27.300781 244.804688 26.410156 242.308594 C 25.519531 239.8125 24.6875 237.296875 23.921875 234.761719 C 23.152344 232.226562 22.445312 229.671875 21.800781 227.101562 C 21.160156 224.53125 20.578125 221.945312 20.0625 219.347656 C 19.546875 216.75 19.09375 214.136719 18.707031 211.515625 C 18.316406 208.894531 17.992188 206.265625 17.734375 203.628906 C 17.472656 200.992188 17.277344 198.351562 17.148438 195.703125 C 17.019531 193.054688 16.953125 190.40625 16.953125 187.757812 C 16.953125 185.109375 17.019531 182.460938 17.148438 179.8125 C 17.277344 177.164062 17.472656 174.523438 17.734375 171.886719 C 17.992188 169.25 18.316406 166.621094 18.707031 164 C 19.09375 161.378906 19.546875 158.765625 20.0625 156.167969 C 20.578125 153.570312 21.160156 150.984375 21.800781 148.414062 C 22.445312 145.84375 23.152344 143.289062 23.921875 140.753906 C 24.6875 138.21875 25.519531 135.703125 26.410156 133.207031 C 27.300781 130.710938 28.253906 128.242188 29.269531 125.792969 C 30.28125 123.34375 31.355469 120.921875 32.484375 118.527344 C 33.617188 116.132812 34.808594 113.765625 36.054688 111.425781 C 37.304688 109.089844 38.609375 106.785156 39.96875 104.511719 C 41.332031 102.238281 42.746094 100 44.21875 97.796875 C 45.6875 95.59375 47.210938 93.429688 48.789062 91.300781 C 50.367188 89.171875 51.996094 87.082031 53.675781 85.035156 C 55.355469 82.984375 57.082031 80.980469 58.863281 79.015625 C 60.640625 77.054688 62.464844 75.132812 64.335938 73.261719 C 66.207031 71.386719 68.125 69.558594 70.085938 67.78125 C 72.050781 66 74.054688 64.269531 76.101562 62.589844 C 78.144531 60.90625 80.234375 59.277344 82.359375 57.699219 C 84.484375 56.121094 86.648438 54.59375 88.851562 53.125 C 91.050781 51.652344 93.289062 50.234375 95.558594 48.871094 C 97.832031 47.507812 100.132812 46.203125 102.46875 44.953125 C 104.804688 43.703125 107.167969 42.511719 109.558594 41.378906 C 111.953125 40.246094 114.375 39.175781 116.820312 38.160156 C 119.265625 37.144531 121.734375 36.191406 124.226562 35.300781 C 126.71875 34.40625 129.234375 33.574219 131.765625 32.804688 C 134.300781 32.039062 136.851562 31.332031 139.417969 30.6875 C 141.988281 30.042969 144.570312 29.460938 147.167969 28.945312 C 149.765625 28.429688 152.371094 27.976562 154.992188 27.585938 C 157.609375 27.199219 160.234375 26.875 162.871094 26.613281 C 165.503906 26.355469 168.144531 26.160156 170.789062 26.03125 C 173.433594 25.898438 176.078125 25.835938 178.726562 25.835938 C 181.375 25.835938 184.019531 25.898438 186.664062 26.03125 C 189.308594 26.160156 191.949219 26.355469 194.585938 26.613281 C 197.21875 26.875 199.847656 27.199219 202.464844 27.585938 C 205.082031 27.976562 207.691406 28.429688 210.289062 28.945312 C 212.882812 29.460938 215.46875 30.042969 218.035156 30.6875 C 220.605469 31.332031 223.15625 32.039062 225.6875 32.804688 C 228.222656 33.574219 230.734375 34.40625 233.226562 35.300781 C 235.71875 36.191406 238.191406 37.144531 240.636719 38.160156 C 243.082031 39.175781 245.5 40.246094 247.894531 41.378906 C 250.289062 42.511719 252.652344 43.703125 254.988281 44.953125 C 257.320312 46.203125 259.625 47.507812 261.894531 48.871094 C 264.167969 50.234375 266.402344 51.652344 268.605469 53.125 C 270.804688 54.59375 272.96875 56.121094 275.097656 57.699219 C 277.222656 59.277344 279.308594 60.90625 281.355469 62.589844 C 283.402344 64.269531 285.40625 66 287.367188 67.78125 C 289.328125 69.558594 291.246094 71.386719 293.117188 73.261719 C 294.992188 75.132812 296.816406 77.054688 298.59375 79.015625 C 300.371094 80.980469 302.101562 82.984375 303.78125 85.035156 C 305.460938 87.082031 307.089844 89.171875 308.664062 91.300781 C 310.242188 93.429688 311.765625 95.59375 313.238281 97.796875 C 314.707031 100 316.125 102.238281 317.484375 104.511719 C 318.847656 106.785156 320.152344 109.089844 321.398438 111.425781 C 322.648438 113.765625 323.835938 116.132812 324.96875 118.527344 C 326.101562 120.921875 327.171875 123.34375 328.1875 125.792969 C 329.199219 128.242188 330.152344 130.710938 331.042969 133.207031 C 331.9375 135.703125 332.765625 138.21875 333.535156 140.753906 C 334.304688 143.289062 335.007812 145.84375 335.652344 148.414062 C 336.296875 150.984375 336.875 153.570312 337.394531 156.167969 C 337.910156 158.765625 338.363281 161.378906 338.75 164 C 339.136719 166.621094 339.460938 169.25 339.722656 171.886719 C 339.980469 174.523438 340.175781 177.164062 340.304688 179.8125 C 340.4375 182.460938 340.5 185.109375 340.5 187.757812 Z M 340.5 187.757812 " fill-opacity="1" fill-rule="nonzero"/><path fill="#ffffff" d="M 298.976562 187.972656 C 298.976562 189.941406 298.929688 191.90625 298.832031 193.871094 C 298.734375 195.832031 298.589844 197.792969 298.398438 199.75 C 298.207031 201.707031 297.964844 203.65625 297.675781 205.601562 C 297.390625 207.546875 297.054688 209.484375 296.671875 211.414062 C 296.285156 213.339844 295.855469 215.257812 295.378906 217.167969 C 294.902344 219.074219 294.378906 220.96875 293.808594 222.851562 C 293.238281 224.730469 292.621094 226.597656 291.960938 228.449219 C 291.296875 230.300781 290.589844 232.132812 289.839844 233.949219 C 289.085938 235.769531 288.292969 237.566406 287.453125 239.34375 C 286.613281 241.121094 285.730469 242.875 284.804688 244.609375 C 283.878906 246.34375 282.910156 248.054688 281.898438 249.742188 C 280.890625 251.425781 279.839844 253.085938 278.746094 254.722656 C 277.65625 256.355469 276.523438 257.964844 275.355469 259.542969 C 274.183594 261.121094 272.976562 262.671875 271.730469 264.191406 C 270.484375 265.710938 269.203125 267.199219 267.882812 268.65625 C 266.5625 270.113281 265.207031 271.539062 263.820312 272.929688 C 262.429688 274.320312 261.007812 275.675781 259.550781 276.996094 C 258.097656 278.316406 256.609375 279.597656 255.089844 280.847656 C 253.574219 282.09375 252.023438 283.304688 250.445312 284.472656 C 248.871094 285.644531 247.265625 286.777344 245.628906 287.871094 C 243.996094 288.960938 242.335938 290.015625 240.652344 291.023438 C 238.96875 292.035156 237.257812 293.003906 235.527344 293.929688 C 233.792969 294.859375 232.039062 295.742188 230.265625 296.582031 C 228.488281 297.421875 226.691406 298.21875 224.878906 298.972656 C 223.0625 299.726562 221.230469 300.433594 219.382812 301.09375 C 217.53125 301.757812 215.667969 302.375 213.789062 302.945312 C 211.90625 303.515625 210.015625 304.039062 208.109375 304.515625 C 206.203125 304.996094 204.289062 305.425781 202.359375 305.808594 C 200.433594 306.191406 198.5 306.527344 196.554688 306.816406 C 194.613281 307.105469 192.664062 307.347656 190.710938 307.539062 C 188.753906 307.730469 186.796875 307.875 184.832031 307.972656 C 182.871094 308.070312 180.910156 308.117188 178.945312 308.117188 C 176.980469 308.117188 175.015625 308.070312 173.054688 307.972656 C 171.09375 307.875 169.132812 307.730469 167.179688 307.539062 C 165.222656 307.347656 163.273438 307.105469 161.332031 306.816406 C 159.386719 306.527344 157.453125 306.191406 155.527344 305.808594 C 153.601562 305.425781 151.683594 304.996094 149.777344 304.515625 C 147.871094 304.039062 145.980469 303.515625 144.101562 302.945312 C 142.21875 302.375 140.355469 301.757812 138.507812 301.09375 C 136.65625 300.433594 134.824219 299.726562 133.007812 298.972656 C 131.195312 298.21875 129.398438 297.421875 127.625 296.582031 C 125.847656 295.742188 124.09375 294.859375 122.359375 293.929688 C 120.628906 293.003906 118.917969 292.035156 117.234375 291.023438 C 115.550781 290.015625 113.890625 288.960938 112.257812 287.871094 C 110.625 286.777344 109.019531 285.644531 107.441406 284.472656 C 105.863281 283.304688 104.316406 282.09375 102.796875 280.847656 C 101.277344 279.597656 99.789062 278.316406 98.335938 276.996094 C 96.878906 275.675781 95.457031 274.320312 94.066406 272.929688 C 92.679688 271.539062 91.324219 270.113281 90.003906 268.65625 C 88.6875 267.199219 87.402344 265.710938 86.15625 264.191406 C 84.910156 262.671875 83.703125 261.121094 82.53125 259.542969 C 81.363281 257.964844 80.230469 256.355469 79.140625 254.722656 C 78.050781 253.085938 77 251.425781 75.988281 249.742188 C 74.980469 248.054688 74.011719 246.34375 73.085938 244.609375 C 72.160156 242.875 71.277344 241.121094 70.4375 239.34375 C 69.597656 237.566406 68.800781 235.769531 68.046875 233.949219 C 67.296875 232.132812 66.589844 230.300781 65.929688 228.449219 C 65.265625 226.597656 64.648438 224.730469 64.078125 222.851562 C 63.507812 220.96875 62.984375 219.074219 62.507812 217.167969 C 62.03125 215.257812 61.601562 213.339844 61.21875 211.414062 C 60.835938 209.484375 60.5 207.546875 60.210938 205.601562 C 59.921875 203.65625 59.683594 201.707031 59.488281 199.75 C 59.296875 197.792969 59.152344 195.832031 59.054688 193.871094 C 58.960938 191.90625 58.910156 189.941406 58.910156 187.972656 C 58.910156 186.007812 58.960938 184.042969 59.054688 182.078125 C 59.152344 180.113281 59.296875 178.15625 59.488281 176.199219 C 59.683594 174.242188 59.921875 172.289062 60.210938 170.34375 C 60.5 168.402344 60.835938 166.464844 61.21875 164.535156 C 61.601562 162.605469 62.03125 160.6875 62.507812 158.78125 C 62.984375 156.875 63.507812 154.980469 64.078125 153.097656 C 64.648438 151.214844 65.265625 149.351562 65.929688 147.5 C 66.589844 145.648438 67.296875 143.8125 68.046875 141.996094 C 68.800781 140.179688 69.597656 138.382812 70.4375 136.605469 C 71.277344 134.828125 72.160156 133.074219 73.085938 131.339844 C 74.011719 129.605469 74.980469 127.894531 75.988281 126.207031 C 77 124.519531 78.050781 122.859375 79.140625 121.226562 C 80.230469 119.589844 81.363281 117.984375 82.53125 116.40625 C 83.703125 114.824219 84.910156 113.277344 86.15625 111.753906 C 87.402344 110.234375 88.6875 108.746094 90.003906 107.289062 C 91.324219 105.832031 92.679688 104.410156 94.066406 103.019531 C 95.457031 101.628906 96.878906 100.273438 98.335938 98.953125 C 99.789062 97.632812 101.277344 96.347656 102.796875 95.101562 C 104.316406 93.855469 105.863281 92.644531 107.441406 91.472656 C 109.019531 90.300781 110.625 89.171875 112.257812 88.078125 C 113.890625 86.984375 115.550781 85.933594 117.234375 84.921875 C 118.917969 83.914062 120.628906 82.945312 122.359375 82.015625 C 124.09375 81.089844 125.847656 80.207031 127.625 79.367188 C 129.398438 78.523438 131.195312 77.726562 133.007812 76.976562 C 134.824219 76.222656 136.65625 75.515625 138.507812 74.855469 C 140.355469 74.191406 142.21875 73.574219 144.101562 73.003906 C 145.980469 72.433594 147.871094 71.910156 149.777344 71.429688 C 151.683594 70.953125 153.601562 70.523438 155.527344 70.140625 C 157.453125 69.753906 159.386719 69.417969 161.332031 69.128906 C 163.273438 68.84375 165.222656 68.601562 167.179688 68.410156 C 169.132812 68.214844 171.09375 68.070312 173.054688 67.976562 C 175.015625 67.878906 176.980469 67.832031 178.945312 67.832031 C 180.910156 67.832031 182.871094 67.878906 184.832031 67.976562 C 186.796875 68.070312 188.753906 68.214844 190.710938 68.410156 C 192.664062 68.601562 194.613281 68.84375 196.554688 69.128906 C 198.5 69.417969 200.433594 69.753906 202.359375 70.140625 C 204.289062 70.523438 206.203125 70.953125 208.109375 71.429688 C 210.015625 71.910156 211.90625 72.433594 213.789062 73.003906 C 215.667969 73.574219 217.53125 74.191406 219.382812 74.855469 C 221.230469 75.515625 223.0625 76.222656 224.878906 76.976562 C 226.691406 77.726562 228.488281 78.523438 230.265625 79.367188 C 232.039062 80.207031 233.792969 81.089844 235.527344 82.015625 C 237.257812 82.945312 238.96875 83.914062 240.652344 84.921875 C 242.335938 85.933594 243.996094 86.984375 245.628906 88.078125 C 247.265625 89.171875 248.871094 90.300781 250.445312 91.472656 C 252.023438 92.644531 253.574219 93.855469 255.089844 95.101562 C 256.609375 96.347656 258.097656 97.632812 259.550781 98.953125 C 261.007812 100.273438 262.429688 101.628906 263.820312 103.019531 C 265.207031 104.410156 266.5625 105.832031 267.882812 107.289062 C 269.203125 108.746094 270.484375 110.234375 271.730469 111.753906 C 272.976562 113.277344 274.183594 114.824219 275.355469 116.40625 C 276.523438 117.984375 277.65625 119.589844 278.746094 121.226562 C 279.839844 122.859375 280.890625 124.519531 281.898438 126.207031 C 282.910156 127.894531 283.878906 129.605469 284.804688 131.339844 C 285.730469 133.074219 286.613281 134.828125 287.453125 136.605469 C 288.292969 138.382812 289.085938 140.179688 289.839844 141.996094 C 290.589844 143.8125 291.296875 145.648438 291.960938 147.5 C 292.621094 149.351562 293.238281 151.214844 293.808594 153.097656 C 294.378906 154.980469 294.902344 156.875 295.378906 158.78125 C 295.855469 160.6875 296.285156 162.605469 296.671875 164.535156 C 297.054688 166.464844 297.390625 168.402344 297.675781 170.34375 C 297.964844 172.289062 298.207031 174.242188 298.398438 176.199219 C 298.589844 178.15625 298.734375 180.113281 298.832031 182.078125 C 298.929688 184.042969 298.976562 186.007812 298.976562 187.972656 Z M 298.976562 187.972656 " fill-opacity="1" fill-rule="nonzero"/><path fill="#0cc0df" d="M 249.664062 187.972656 C 249.664062 189.132812 249.636719 190.289062 249.582031 191.449219 C 249.523438 192.605469 249.4375 193.757812 249.324219 194.914062 C 249.210938 196.066406 249.070312 197.214844 248.898438 198.359375 C 248.730469 199.507812 248.53125 200.648438 248.308594 201.785156 C 248.082031 202.921875 247.828125 204.050781 247.546875 205.175781 C 247.265625 206.296875 246.957031 207.414062 246.621094 208.523438 C 246.285156 209.632812 245.921875 210.730469 245.53125 211.820312 C 245.140625 212.914062 244.726562 213.992188 244.28125 215.0625 C 243.839844 216.132812 243.371094 217.191406 242.875 218.238281 C 242.378906 219.285156 241.859375 220.320312 241.316406 221.34375 C 240.769531 222.363281 240.199219 223.371094 239.605469 224.367188 C 239.007812 225.359375 238.390625 226.339844 237.746094 227.300781 C 237.105469 228.265625 236.4375 229.210938 235.75 230.140625 C 235.058594 231.074219 234.347656 231.984375 233.613281 232.882812 C 232.878906 233.777344 232.121094 234.652344 231.34375 235.511719 C 230.566406 236.371094 229.769531 237.210938 228.953125 238.027344 C 228.132812 238.847656 227.296875 239.644531 226.4375 240.425781 C 225.582031 241.203125 224.703125 241.957031 223.808594 242.695312 C 222.914062 243.429688 222.003906 244.140625 221.074219 244.832031 C 220.144531 245.519531 219.195312 246.1875 218.234375 246.832031 C 217.273438 247.476562 216.296875 248.09375 215.300781 248.691406 C 214.308594 249.285156 213.300781 249.855469 212.28125 250.402344 C 211.261719 250.949219 210.226562 251.46875 209.179688 251.964844 C 208.136719 252.460938 207.078125 252.929688 206.007812 253.375 C 204.9375 253.816406 203.859375 254.234375 202.769531 254.625 C 201.679688 255.015625 200.582031 255.378906 199.472656 255.714844 C 198.367188 256.050781 197.25 256.359375 196.128906 256.640625 C 195.003906 256.921875 193.875 257.175781 192.742188 257.402344 C 191.605469 257.628906 190.464844 257.824219 189.320312 257.996094 C 188.175781 258.164062 187.027344 258.308594 185.875 258.421875 C 184.722656 258.535156 183.570312 258.621094 182.414062 258.675781 C 181.257812 258.734375 180.101562 258.761719 178.945312 258.761719 C 177.785156 258.761719 176.628906 258.734375 175.472656 258.675781 C 174.316406 258.621094 173.164062 258.535156 172.011719 258.421875 C 170.859375 258.308594 169.710938 258.164062 168.566406 257.996094 C 167.421875 257.824219 166.28125 257.628906 165.148438 257.402344 C 164.011719 257.175781 162.882812 256.921875 161.761719 256.640625 C 160.636719 256.359375 159.523438 256.050781 158.414062 255.714844 C 157.308594 255.378906 156.207031 255.015625 155.117188 254.625 C 154.027344 254.234375 152.949219 253.816406 151.878906 253.375 C 150.808594 252.929688 149.753906 252.460938 148.707031 251.964844 C 147.660156 251.46875 146.625 250.949219 145.605469 250.402344 C 144.585938 249.855469 143.578125 249.285156 142.585938 248.691406 C 141.59375 248.09375 140.617188 247.476562 139.652344 246.832031 C 138.691406 246.1875 137.746094 245.519531 136.816406 244.832031 C 135.886719 244.140625 134.972656 243.429688 134.078125 242.695312 C 133.183594 241.957031 132.308594 241.203125 131.449219 240.425781 C 130.59375 239.644531 129.753906 238.847656 128.9375 238.027344 C 128.117188 237.210938 127.320312 236.371094 126.542969 235.511719 C 125.765625 234.652344 125.007812 233.777344 124.273438 232.882812 C 123.539062 231.984375 122.828125 231.074219 122.140625 230.140625 C 121.449219 229.210938 120.785156 228.265625 120.140625 227.300781 C 119.496094 226.339844 118.878906 225.359375 118.285156 224.367188 C 117.6875 223.371094 117.117188 222.363281 116.574219 221.34375 C 116.027344 220.320312 115.507812 219.285156 115.011719 218.238281 C 114.515625 217.191406 114.046875 216.132812 113.605469 215.0625 C 113.164062 213.992188 112.746094 212.914062 112.355469 211.820312 C 111.964844 210.730469 111.601562 209.632812 111.265625 208.523438 C 110.929688 207.414062 110.621094 206.296875 110.339844 205.175781 C 110.058594 204.050781 109.808594 202.921875 109.582031 201.785156 C 109.355469 200.648438 109.15625 199.507812 108.988281 198.359375 C 108.816406 197.214844 108.675781 196.066406 108.5625 194.914062 C 108.449219 193.757812 108.363281 192.605469 108.308594 191.449219 C 108.25 190.289062 108.222656 189.132812 108.222656 187.972656 C 108.222656 186.816406 108.25 185.65625 108.308594 184.5 C 108.363281 183.34375 108.449219 182.1875 108.5625 181.035156 C 108.675781 179.882812 108.816406 178.734375 108.988281 177.585938 C 109.15625 176.441406 109.355469 175.300781 109.582031 174.164062 C 109.808594 173.027344 110.058594 171.898438 110.339844 170.773438 C 110.621094 169.652344 110.929688 168.535156 111.265625 167.425781 C 111.601562 166.316406 111.964844 165.21875 112.355469 164.125 C 112.746094 163.035156 113.164062 161.957031 113.605469 160.886719 C 114.046875 159.816406 114.515625 158.757812 115.011719 157.707031 C 115.507812 156.660156 116.027344 155.625 116.574219 154.605469 C 117.117188 153.582031 117.6875 152.574219 118.285156 151.582031 C 118.878906 150.589844 119.496094 149.609375 120.140625 148.648438 C 120.785156 147.683594 121.449219 146.738281 122.140625 145.804688 C 122.828125 144.875 123.539062 143.960938 124.273438 143.066406 C 125.007812 142.171875 125.765625 141.292969 126.542969 140.4375 C 127.320312 139.578125 128.117188 138.738281 128.9375 137.917969 C 129.753906 137.101562 130.59375 136.300781 131.449219 135.523438 C 132.308594 134.746094 133.183594 133.988281 134.078125 133.253906 C 134.972656 132.519531 135.886719 131.808594 136.816406 131.117188 C 137.746094 130.425781 138.691406 129.761719 139.652344 129.117188 C 140.617188 128.472656 141.59375 127.851562 142.585938 127.257812 C 143.578125 126.664062 144.585938 126.089844 145.605469 125.546875 C 146.625 125 147.660156 124.476562 148.707031 123.984375 C 149.753906 123.488281 150.808594 123.019531 151.878906 122.574219 C 152.949219 122.132812 154.027344 121.714844 155.117188 121.324219 C 156.207031 120.933594 157.308594 120.570312 158.414062 120.234375 C 159.523438 119.898438 160.636719 119.589844 161.761719 119.308594 C 162.882812 119.027344 164.011719 118.773438 165.148438 118.546875 C 166.28125 118.320312 167.421875 118.121094 168.566406 117.953125 C 169.710938 117.78125 170.859375 117.640625 172.011719 117.527344 C 173.164062 117.414062 174.316406 117.328125 175.472656 117.273438 C 176.628906 117.214844 177.785156 117.1875 178.945312 117.1875 C 180.101562 117.1875 181.257812 117.214844 182.414062 117.273438 C 183.570312 117.328125 184.722656 117.414062 185.875 117.527344 C 187.027344 117.640625 188.175781 117.78125 189.320312 117.953125 C 190.464844 118.121094 191.605469 118.320312 192.742188 118.546875 C 193.875 118.773438 195.003906 119.027344 196.128906 119.308594 C 197.25 119.589844 198.367188 119.898438 199.472656 120.234375 C 200.582031 120.570312 201.679688 120.933594 202.769531 121.324219 C 203.859375 121.714844 204.9375 122.132812 206.007812 122.574219 C 207.078125 123.019531 208.136719 123.488281 209.179688 123.984375 C 210.226562 124.476562 211.261719 125 212.28125 125.546875 C 213.300781 126.089844 214.308594 126.664062 215.300781 127.257812 C 216.296875 127.851562 217.273438 128.472656 218.234375 129.117188 C 219.195312 129.761719 220.144531 130.425781 221.074219 131.117188 C 222.003906 131.808594 222.914062 132.519531 223.808594 133.253906 C 224.703125 133.988281 225.582031 134.746094 226.4375 135.523438 C 227.296875 136.300781 228.132812 137.101562 228.953125 137.917969 C 229.769531 138.738281 230.566406 139.578125 231.34375 140.4375 C 232.121094 141.292969 232.878906 142.171875 233.613281 143.066406 C 234.347656 143.960938 235.058594 144.875 235.75 145.804688 C 236.4375 146.738281 237.105469 147.683594 237.746094 148.648438 C 238.390625 149.609375 239.007812 150.589844 239.605469 151.582031 C 240.199219 152.574219 240.769531 153.582031 241.316406 154.605469 C 241.859375 155.625 242.378906 156.660156 242.875 157.707031 C 243.371094 158.757812 243.839844 159.816406 244.28125 160.886719 C 244.726562 161.957031 245.140625 163.035156 245.53125 164.125 C 245.921875 165.21875 246.285156 166.316406 246.621094 167.425781 C 246.957031 168.535156 247.265625 169.652344 247.546875 170.773438 C 247.828125 171.898438 248.082031 173.027344 248.308594 174.164062 C 248.53125 175.300781 248.730469 176.441406 248.898438 177.585938 C 249.070312 178.734375 249.210938 179.882812 249.324219 181.035156 C 249.4375 182.1875 249.523438 183.34375 249.582031 184.5 C 249.636719 185.65625 249.664062 186.816406 249.664062 187.972656 Z M 249.664062 187.972656 " fill-opacity="1" fill-rule="nonzero"/><path fill="#0cc0df" d="M 201.21875 201.613281 L 269.5625 201.613281 L 269.5625 234.082031 L 201.21875 234.082031 Z M 201.21875 201.613281 " fill-opacity="1" fill-rule="nonzero"/><path fill="#ffffff" d="M 257.941406 105.472656 L 318.066406 105.472656 L 318.066406 119.328125 L 257.941406 119.328125 Z M 257.941406 105.472656 " fill-opacity="1" fill-rule="nonzero"/><path fill="#ffffff" d="M 313.375 107.679688 L 318.082031 105.484375 L 321.003906 111.761719 L 316.300781 113.957031 Z M 313.375 107.679688 " fill-opacity="1" fill-rule="nonzero"/><path fill="#ffffff" d="M 257.523438 256.890625 L 317.648438 256.890625 L 317.648438 270.746094 L 257.523438 270.746094 Z M 257.523438 256.890625 " fill-opacity="1" fill-rule="nonzero"/><path fill="#ffffff" d="M 320.3125 252.148438 L 325.707031 254.898438 L 317.65625 270.714844 L 312.257812 267.960938 Z M 320.3125 252.148438 " fill-opacity="1" fill-rule="nonzero"/><path fill="#ffffff" d="M 317.492188 269.007812 L 318.25 269.425781 L 317.621094 270.5625 L 316.863281 270.144531 Z M 317.492188 269.007812 " fill-opacity="1" fill-rule="nonzero"/><path fill="#ffffff" d="M 317.636719 105.667969 L 318.023438 105.476562 L 318.59375 106.644531 L 318.203125 106.835938 Z M 317.636719 105.667969 " fill-opacity="1" fill-rule="nonzero"/><path fill="#ffffff" d="M 317.964844 105.714844 L 318.398438 105.714844 L 318.398438 106.148438 L 317.964844 106.148438 Z M 317.964844 105.714844 " fill-opacity="1" fill-rule="nonzero"/><path fill="#ffffff" d="M 317.359375 105.929688 L 318.65625 105.929688 L 318.65625 110.691406 L 317.359375 110.691406 Z M 317.359375 105.929688 " fill-opacity="1" fill-rule="nonzero"/><path fill="#ffffff" d="M 253.992188 111.558594 L 325.792969 111.558594 L 325.792969 264.390625 L 253.992188 264.390625 Z M 253.992188 111.558594 " fill-opacity="1" fill-rule="nonzero"/><path fill="#ffffff" d="M 317.117188 107.210938 L 318.597656 106.320312 L 323.277344 114.113281 L 321.792969 115.003906 Z M 317.117188 107.210938 " fill-opacity="1" fill-rule="nonzero"/><path fill="#ffffff" d="M 324.753906 254.183594 L 326.175781 254.90625 L 318.515625 269.953125 L 317.09375 269.226562 Z M 324.753906 254.183594 " fill-opacity="1" fill-rule="nonzero"/><path fill="#ffffff" d="M 321.46875 119.351562 L 329.253906 119.351562 L 329.253906 254 L 321.46875 254 Z M 321.46875 119.351562 " fill-opacity="1" fill-rule="nonzero"/><path fill="#ffffff" d="M 342.230469 186.242188 C 342.230469 188.292969 342.210938 190.335938 342.167969 192.375 C 342.125 194.414062 342.0625 196.4375 341.976562 198.449219 C 341.894531 200.457031 341.789062 202.441406 341.664062 204.402344 C 341.539062 206.363281 341.390625 208.289062 341.226562 210.183594 C 341.0625 212.078125 340.878906 213.925781 340.671875 215.734375 C 340.46875 217.539062 340.246094 219.296875 340.007812 221 C 339.769531 222.703125 339.511719 224.347656 339.238281 225.929688 C 338.960938 227.515625 338.671875 229.03125 338.367188 230.480469 C 338.0625 231.929688 337.742188 233.304688 337.40625 234.601562 C 337.074219 235.902344 336.726562 237.121094 336.367188 238.261719 C 336.007812 239.398438 335.636719 240.449219 335.257812 241.417969 C 334.875 242.382812 334.488281 243.257812 334.085938 244.042969 C 333.6875 244.824219 333.28125 245.515625 332.867188 246.109375 C 332.453125 246.703125 332.035156 247.203125 331.613281 247.601562 C 331.1875 248 330.761719 248.300781 330.332031 248.503906 C 329.902344 248.703125 329.46875 248.804688 329.039062 248.804688 C 328.605469 248.804688 328.175781 248.703125 327.746094 248.503906 C 327.316406 248.300781 326.886719 248 326.464844 247.601562 C 326.039062 247.203125 325.621094 246.703125 325.207031 246.109375 C 324.796875 245.515625 324.390625 244.824219 323.988281 244.042969 C 323.589844 243.257812 323.199219 242.382812 322.820312 241.417969 C 322.4375 240.449219 322.066406 239.398438 321.710938 238.261719 C 321.351562 237.121094 321.003906 235.902344 320.667969 234.601562 C 320.335938 233.304688 320.015625 231.929688 319.710938 230.480469 C 319.40625 229.03125 319.113281 227.515625 318.839844 225.929688 C 318.566406 224.347656 318.308594 222.703125 318.070312 221 C 317.828125 219.296875 317.605469 217.539062 317.402344 215.734375 C 317.199219 213.925781 317.015625 212.078125 316.851562 210.183594 C 316.683594 208.289062 316.539062 206.363281 316.414062 204.402344 C 316.289062 202.441406 316.183594 200.457031 316.097656 198.449219 C 316.015625 196.4375 315.953125 194.414062 315.910156 192.375 C 315.867188 190.335938 315.847656 188.292969 315.847656 186.242188 C 315.847656 184.191406 315.867188 182.148438 315.910156 180.109375 C 315.953125 178.070312 316.015625 176.046875 316.097656 174.039062 C 316.183594 172.027344 316.289062 170.042969 316.414062 168.082031 C 316.539062 166.121094 316.683594 164.195312 316.851562 162.300781 C 317.015625 160.40625 317.199219 158.558594 317.402344 156.75 C 317.605469 154.945312 317.828125 153.1875 318.070312 151.484375 C 318.308594 149.78125 318.566406 148.136719 318.839844 146.554688 C 319.113281 144.96875 319.40625 143.453125 319.710938 142.003906 C 320.015625 140.554688 320.335938 139.179688 320.667969 137.882812 C 321.003906 136.582031 321.351562 135.363281 321.710938 134.222656 C 322.066406 133.085938 322.4375 132.035156 322.820312 131.066406 C 323.199219 130.101562 323.589844 129.226562 323.988281 128.441406 C 324.390625 127.660156 324.796875 126.96875 325.207031 126.375 C 325.621094 125.78125 326.039062 125.28125 326.464844 124.882812 C 326.886719 124.484375 327.316406 124.183594 327.746094 123.980469 C 328.175781 123.78125 328.605469 123.679688 329.039062 123.679688 C 329.46875 123.679688 329.902344 123.78125 330.332031 123.980469 C 330.761719 124.183594 331.1875 124.484375 331.613281 124.882812 C 332.035156 125.28125 332.453125 125.78125 332.867188 126.375 C 333.28125 126.96875 333.6875 127.660156 334.085938 128.441406 C 334.488281 129.226562 334.875 130.101562 335.257812 131.066406 C 335.636719 132.035156 336.007812 133.085938 336.367188 134.222656 C 336.726562 135.363281 337.074219 136.582031 337.40625 137.882812 C 337.742188 139.179688 338.0625 140.554688 338.367188 142.003906 C 338.671875 143.453125 338.960938 144.96875 339.238281 146.554688 C 339.511719 148.136719 339.769531 149.78125 340.007812 151.484375 C 340.246094 153.1875 340.46875 154.945312 340.671875 156.75 C 340.878906 158.558594 341.0625 160.40625 341.226562 162.300781 C 341.390625 164.195312 341.539062 166.121094 341.664062 168.082031 C 341.789062 170.042969 341.894531 172.027344 341.976562 174.039062 C 342.0625 176.046875 342.125 178.070312 342.167969 180.109375 C 342.210938 182.148438 342.230469 184.191406 342.230469 186.242188 Z M 342.230469 186.242188 " fill-opacity="1" fill-rule="nonzero"/><path fill="#0cc0df" d="M 315.847656 187.757812 C 315.847656 189.273438 315.773438 190.789062 315.621094 192.296875 C 315.472656 193.808594 315.253906 195.308594 314.957031 196.796875 C 314.660156 198.285156 314.292969 199.753906 313.851562 201.207031 C 313.414062 202.65625 312.902344 204.082031 312.324219 205.484375 C 311.742188 206.886719 311.09375 208.257812 310.378906 209.59375 C 309.667969 210.933594 308.886719 212.234375 308.046875 213.496094 C 307.203125 214.757812 306.300781 215.972656 305.339844 217.144531 C 304.378906 218.320312 303.363281 219.441406 302.289062 220.515625 C 301.21875 221.585938 300.097656 222.605469 298.925781 223.566406 C 297.753906 224.53125 296.535156 225.433594 295.277344 226.277344 C 294.015625 227.117188 292.71875 227.898438 291.378906 228.613281 C 290.042969 229.328125 288.675781 229.976562 287.273438 230.558594 C 285.875 231.136719 284.449219 231.648438 283 232.089844 C 281.546875 232.527344 280.078125 232.898438 278.59375 233.191406 C 277.105469 233.488281 275.609375 233.710938 274.097656 233.859375 C 272.589844 234.007812 271.078125 234.082031 269.5625 234.082031 C 268.046875 234.082031 266.535156 234.007812 265.027344 233.859375 C 263.519531 233.710938 262.019531 233.488281 260.535156 233.191406 C 259.046875 232.898438 257.578125 232.527344 256.128906 232.089844 C 254.675781 231.648438 253.25 231.136719 251.851562 230.558594 C 250.449219 229.976562 249.082031 229.328125 247.746094 228.613281 C 246.410156 227.898438 245.109375 227.117188 243.851562 226.277344 C 242.589844 225.433594 241.375 224.53125 240.203125 223.566406 C 239.03125 222.605469 237.90625 221.585938 236.835938 220.515625 C 235.765625 219.441406 234.746094 218.320312 233.785156 217.144531 C 232.824219 215.972656 231.921875 214.757812 231.082031 213.496094 C 230.238281 212.234375 229.460938 210.933594 228.746094 209.59375 C 228.03125 208.257812 227.382812 206.886719 226.804688 205.484375 C 226.222656 204.082031 225.714844 202.65625 225.273438 201.207031 C 224.832031 199.753906 224.464844 198.285156 224.167969 196.796875 C 223.875 195.308594 223.652344 193.808594 223.503906 192.296875 C 223.355469 190.789062 223.28125 189.273438 223.28125 187.757812 C 223.28125 186.242188 223.355469 184.726562 223.503906 183.21875 C 223.652344 181.707031 223.875 180.207031 224.167969 178.71875 C 224.464844 177.230469 224.832031 175.761719 225.273438 174.308594 C 225.714844 172.859375 226.222656 171.429688 226.804688 170.03125 C 227.382812 168.628906 228.03125 167.257812 228.746094 165.917969 C 229.460938 164.582031 230.238281 163.28125 231.082031 162.019531 C 231.921875 160.757812 232.824219 159.542969 233.785156 158.367188 C 234.746094 157.195312 235.765625 156.074219 236.835938 155 C 237.90625 153.925781 239.03125 152.910156 240.203125 151.949219 C 241.375 150.984375 242.589844 150.082031 243.851562 149.238281 C 245.109375 148.394531 246.410156 147.617188 247.746094 146.902344 C 249.082031 146.1875 250.449219 145.539062 251.851562 144.957031 C 253.25 144.378906 254.675781 143.867188 256.128906 143.425781 C 257.578125 142.984375 259.046875 142.617188 260.535156 142.320312 C 262.019531 142.027344 263.519531 141.804688 265.027344 141.65625 C 266.535156 141.507812 268.046875 141.433594 269.5625 141.433594 C 271.078125 141.433594 272.589844 141.507812 274.097656 141.65625 C 275.609375 141.804688 277.105469 142.027344 278.59375 142.320312 C 280.078125 142.617188 281.546875 142.984375 283 143.425781 C 284.449219 143.867188 285.875 144.378906 287.273438 144.957031 C 288.675781 145.539062 290.042969 146.1875 291.378906 146.902344 C 292.71875 147.617188 294.015625 148.394531 295.277344 149.238281 C 296.535156 150.082031 297.753906 150.984375 298.925781 151.949219 C 300.097656 152.910156 301.21875 153.925781 302.289062 155 C 303.363281 156.074219 304.378906 157.195312 305.339844 158.367188 C 306.300781 159.542969 307.203125 160.757812 308.046875 162.019531 C 308.886719 163.28125 309.667969 164.582031 310.378906 165.917969 C 311.09375 167.257812 311.742188 168.628906 312.324219 170.03125 C 312.902344 171.429688 313.414062 172.859375 313.851562 174.308594 C 314.292969 175.761719 314.660156 177.230469 314.957031 178.71875 C 315.253906 180.207031 315.472656 181.707031 315.621094 183.21875 C 315.773438 184.726562 315.847656 186.242188 315.847656 187.757812 Z M 315.847656 187.757812 " fill-opacity="1" fill-rule="nonzero"/><path fill="#0cc0df" d="M 197.328125 190.789062 L 267.398438 190.789062 L 267.398438 234.082031 L 197.328125 234.082031 Z M 197.328125 190.789062 " fill-opacity="1" fill-rule="nonzero"/></svg>